<?xml version="1.0" encoding="utf-8"?>
<!-- Generator: Adobe Illustrator 18.1.0, SVG Export Plug-In . SVG Version: 6.00 Build 0)  -->
<svg version="1.1" id="Layer_1" xmlns="http://www.w3.org/2000/svg" xmlns:xlink="http://www.w3.org/1999/xlink" x="0px" y="0px"
	 viewBox="0 0 40.7 40.5" enable-background="new 0 0 40.7 40.5" xml:space="preserve">
<g id="Your_Icon_2_">
	<path fill="#BC9D6D" d="M6.3,40.3c0.5,0,0.9-0.3,1-0.8c0,0.5,0.3,1,0.9,1c0.5,0,1-0.3,1-0.9c0.1-0.6,0.2-2,0.2-2.5c0,0,0,0,0,0
		c3.4,0.3,7.2-2.2,8-7.6c0.3-2.3-0.3-4.6-1.7-6.5c-1-1.3-2.2-2.2-3.7-2.8c0.1-0.2,0.2-0.4,0.2-0.7c0.1-0.6-0.1-1.2-0.4-1.7
		c-0.4-0.5-0.9-0.8-1.5-0.9c-1.1-0.2-2.2,0.6-2.6,1.7c0,0.1-0.1,0.2-0.1,0.3c0,0.2,0,0.5,0,0.7c-0.3,0-0.5,0.1-0.7,0.1l-0.6-1.7
		c0.6-0.4,1.1-1.1,1.3-1.8c0.1-0.4,0.1-0.7,0.1-1.1l-0.3-4.2c0-0.4-0.1-0.8-0.3-1.1L9.6,8C9.6,8,9.7,8,9.7,8.1
		c0.8,0.4,1.7,0.5,2.5,0.2l4-1.4c1-0.4,1.8-1.2,2.1-2.2c0,0,0,0,0,0l2,0c0.3,0.8,1,1.5,1.8,1.8L26.1,8c0.8,0.3,1.7,0.3,2.5,0
		l0.9,1.1c-0.2,0.3-0.3,0.6-0.4,0.9c-0.1,0.4-0.2,0.9-0.1,1.4l0.6,4.2c0.2,1.2,1,2.2,2.1,2.7l0,1.4c-2.9,0.1-5.7,1.6-7.3,4.4
		c-0.5,0.9-0.9,1.7-1.1,2.5c-1,3.7,0.3,6.8,2.7,8.4c0,0,0,0,0,0c-0.3,0.4-1,1.7-1.3,2.1c-0.3,0.4-0.1,1,0.3,1.3
		c0.4,0.3,1,0.1,1.3-0.3l0,0c0,0.1-0.1,0.1-0.1,0.2c-0.1,0.4,0,0.8,0.4,1.1c0.4,0.3,1,0.1,1.3-0.3c0.1-0.2,1.1-1.7,1.4-2.2
		c0,0,0,0,0,0c3,1.5,7.5,0.6,10.3-4.1c2-3.5,1.3-7.9-1.4-10.6c0.2-0.2,0.3-0.3,0.5-0.5c0.1-0.2,0.2-0.3,0.2-0.5
		c0.3-1-0.1-2.1-1.1-2.6c-1.1-0.6-2.5-0.3-3.2,0.8c-0.1,0.2-0.2,0.3-0.2,0.5c0,0,0,0.1,0,0.1c-0.2-0.1-0.5-0.1-0.7-0.2l0-1.4
		c1.2-0.3,2.1-1.1,2.5-2.3c0.1-0.4,0.2-0.9,0.1-1.4l-0.6-4.2c-0.2-1.8-1.9-3.1-3.7-2.8c-0.3,0-0.6,0.1-0.9,0.2l-0.8-1.1
		c0.1-0.2,0.3-0.4,0.3-0.6c0.7-1.7-0.1-3.7-1.8-4.3l-3.9-1.6c-0.8-0.3-1.7-0.3-2.5,0c-0.8,0.3-1.5,1-1.8,1.8c0,0.1-0.1,0.2-0.1,0.4
		c0,0.1,0,0.2-0.1,0.2l-1.8,0c0,0,0,0,0-0.1c-0.3-0.8-0.9-1.5-1.7-1.9c-0.8-0.4-1.7-0.5-2.5-0.2l-4,1.4C9.1,2.3,8.3,3.1,8,4.2
		c-0.2,0.7-0.2,1.3,0.1,2c0.1,0.2,0.1,0.3,0.2,0.5L6.1,8.4C5.5,8,4.8,7.8,4.1,7.8c-1.4,0.1-2.6,1.1-3,2.4C1,10.6,0.9,11,1,11.4
		l0.3,4.2c0.1,1.8,1.6,3.2,3.4,3.1l0.6,1.6c-2.3,1-4.2,3.1-4.9,5.6c-0.1,0.4-0.2,0.8-0.3,1.2c-0.8,5.4,2.2,8.9,5.6,9.5c0,0,0,0,0,0
		c-0.1,0.6-0.2,2.4-0.3,2.6C5.4,39.8,5.8,40.2,6.3,40.3z M37.8,31.8c-1.6,2.8-4.8,4.8-7.8,3.3c-0.9-0.5-2-0.2-2.5,0.6
		c0.4-0.8,0.1-1.9-0.7-2.4c-2.8-1.8-2.6-5.6-1-8.4c1.9-3.3,6.1-4.4,9.4-2.5C38.6,24.4,39.7,28.6,37.8,31.8z M36.2,20.2
		c0.1-0.2,0.4-0.3,0.6-0.2c0.2,0.1,0.2,0.3,0.2,0.5c0,0,0,0.1,0,0.1c-0.1,0.2-0.4,0.3-0.6,0.2c0,0,0,0,0,0c0,0,0,0,0,0
		C36.1,20.7,36,20.4,36.2,20.2z M33.7,10.8l0.6,4.2c0,0.2,0,0.4,0,0.6c-0.1,0.3-0.3,0.6-0.6,0.8l0-1.4c0-0.5-0.4-1-0.9-1
		c-0.4,0-0.8,0.3-0.9,0.7c0,0.1,0,0.2,0,0.2l0,1.1c-0.2-0.2-0.3-0.4-0.3-0.7l-0.6-4.2c0-0.1,0-0.2,0-0.3l0.7,0.8
		c0.3,0.4,0.9,0.5,1.3,0.2c0.4-0.3,0.5-0.9,0.2-1.3l-0.8-1C33,9.5,33.6,10,33.7,10.8z M22.9,2c0.4-0.1,0.7-0.1,1.1,0l3.9,1.6
		c0.6,0.3,1,0.9,0.9,1.5l-0.5-0.6C28,4.2,27.4,4.1,27,4.4c-0.2,0.1-0.3,0.3-0.3,0.5c-0.1,0.3,0,0.6,0.2,0.9l0.5,0.6
		c-0.2,0-0.3,0-0.5-0.1l-3.9-1.6c-0.1,0-0.2-0.1-0.2-0.1l0.7,0c0.5,0,0.9-0.4,0.9-1c0-0.5-0.4-0.9-1-0.9l-1.1,0
		C22.4,2.4,22.6,2.1,22.9,2z M10.8,3.7l4-1.4c0.4-0.1,0.7-0.1,1.1,0.1c0.2,0.1,0.3,0.2,0.4,0.3l-0.8,0c-0.4,0-0.8,0.3-0.9,0.7
		c0,0.1,0,0.2,0,0.3c0,0.5,0.4,0.9,1,0.9l0.7,0c-0.2,0.2-0.4,0.3-0.6,0.4l-4,1.4c-0.1,0-0.2,0.1-0.3,0.1l0.7-0.6
		c0.4-0.3,0.5-0.9,0.1-1.3c-0.3-0.4-0.9-0.5-1.3-0.1L9.8,5.3C9.7,4.6,10.1,3.9,10.8,3.7z M3.1,15.5l-0.3-4.2c0-0.8,0.6-1.5,1.3-1.5
		c0.1,0,0.2,0,0.2,0l-0.6,0.5c-0.2,0.1-0.3,0.3-0.3,0.5c-0.1,0.3,0,0.6,0.2,0.9C4,12,4.6,12.1,5,11.7l0.7-0.6L6,15.3
		c0,0.2,0,0.3-0.1,0.5c0,0.1-0.1,0.3-0.2,0.4l-0.3-0.9c-0.2-0.5-0.7-0.7-1.2-0.6c-0.3,0.1-0.5,0.4-0.6,0.6c-0.1,0.2-0.1,0.4,0,0.6
		l0.3,0.8C3.5,16.4,3.2,16,3.1,15.5z M9.8,19.5c0-0.1-0.1-0.2-0.1-0.3c0-0.2,0.2-0.4,0.5-0.4c0.1,0,0.2,0.1,0.3,0.2
		c0,0.1,0.1,0.2,0.1,0.3c0,0,0,0,0,0.1c-0.1,0.2-0.3,0.3-0.5,0.3l0,0c0,0,0,0,0,0C9.9,19.6,9.8,19.5,9.8,19.5z M2,27.4
		c0.5-3.8,4-6.4,7.8-5.8c1.8,0.3,3.4,1.2,4.5,2.7c1.1,1.5,1.6,3.3,1.3,5.1c-0.6,4.2-3.4,6.2-5.9,6c-1-0.1-1.9,0.6-2.1,1.5
		c0.1-0.9-0.6-1.8-1.6-2C2.8,34.1,1.6,30.5,2,27.4z"/>
</g>
</svg>
