<?xml version="1.0" encoding="utf-8"?>
<!-- Generator: Adobe Illustrator 18.1.0, SVG Export Plug-In . SVG Version: 6.00 Build 0)  -->
<svg version="1.1" id="Layer_1" xmlns="http://www.w3.org/2000/svg" xmlns:xlink="http://www.w3.org/1999/xlink" x="0px" y="0px"
	 viewBox="0 0 31.2 35.6" enable-background="new 0 0 31.2 35.6" xml:space="preserve">
<g id="Your_Icon">
	<path fill="#87714F" d="M29.9,24.7c-0.3,0-0.5,0.1-0.7,0.2L25,17.8l4.2-7.1c0.2,0.1,0.4,0.2,0.7,0.2c0.7,0,1.3-0.6,1.3-1.3
		c0-0.7-0.6-1.3-1.3-1.3c-0.7,0-1.3,0.6-1.3,1.3c0,0,0,0,0,0l-8.2,0.1l-4-7.2c0.4-0.2,0.7-0.7,0.7-1.2c0-0.7-0.6-1.3-1.3-1.3
		c-0.7,0-1.3,0.6-1.3,1.3c0,0.5,0.3,0.9,0.7,1.2l-4,7.2L2.7,9.6c0,0,0,0,0,0c0-0.7-0.6-1.3-1.3-1.3C0.6,8.2,0,8.8,0,9.6
		c0,0.7,0.6,1.3,1.3,1.3c0.2,0,0.5-0.1,0.7-0.2l4.2,7.1L2,24.9c-0.2-0.1-0.4-0.2-0.7-0.2c-0.7,0-1.3,0.6-1.3,1.3
		c0,0.7,0.6,1.3,1.3,1.3c0.7,0,1.3-0.6,1.3-1.3c0,0,0,0,0,0l8.2-0.1l4,7.2c-0.4,0.2-0.7,0.7-0.7,1.2c0,0.7,0.6,1.3,1.3,1.3
		c0.7,0,1.3-0.6,1.3-1.3c0-0.5-0.3-0.9-0.7-1.2l4-7.2l8.2,0.1c0,0,0,0,0,0c0,0.7,0.6,1.3,1.3,1.3c0.7,0,1.3-0.6,1.3-1.3
		C31.2,25.3,30.6,24.7,29.9,24.7z"/>
</g>
</svg>
